<?xml version="1.0" encoding="UTF-8"?>
<svg width="64px" height="64px" viewBox="0 0 64 64" version="1.1" xmlns="http://www.w3.org/2000/svg" xmlns:xlink="http://www.w3.org/1999/xlink">
    <!-- Generator: Sketch 50.2 (55047) - http://www.bohemiancoding.com/sketch -->
    <title>icon</title>
    <desc>Created with Sketch.</desc>
    <defs></defs>
    <g id="Page-1" stroke="none" stroke-width="1" fill="none" fill-rule="evenodd">
        <g id="Artboard" transform="translate(-125.000000, -87.000000)">
            <g id="icon" transform="translate(125.000000, 87.000000)">
                <rect id="Rectangle" fill="#49A63D" x="0" y="0" width="64" height="64" rx="8"></rect>
                <g id="list-ul" transform="translate(7.000000, 12.000000)" fill="#FFFFFF" fill-rule="nonzero">
                    <path d="M9.23062491,4.61531246 C9.23062491,7.16431107 7.16431107,9.23062491 4.61531246,9.23062491 C2.06631385,9.23062491 0,7.16431107 0,4.61531246 C0,2.06631385 2.06631385,0 4.61531246,0 C7.16431107,0 9.23062491,2.06631385 9.23062491,4.61531246 Z M4.61531246,15.3843749 C2.06631385,15.3843749 0,17.4506887 0,19.9996873 C0,22.5486859 2.06631385,24.6149998 4.61531246,24.6149998 C7.16431107,24.6149998 9.23062491,22.5486859 9.23062491,19.9996873 C9.23062491,17.4506887 7.16431107,15.3843749 4.61531246,15.3843749 Z M4.61531246,30.7687497 C2.06631385,30.7687497 0,32.8350636 0,35.3840622 C0,37.9330608 2.06631385,39.9993746 4.61531246,39.9993746 C7.16431107,39.9993746 9.23062491,37.9330608 9.23062491,35.3840622 C9.23062491,32.8350636 7.16431107,30.7687497 4.61531246,30.7687497 Z M49.2299995,6.15374994 L49.2299995,3.07687497 C49.2299995,2.4396734 48.713373,1.92304686 48.0761714,1.92304686 L13.461328,1.92304686 C12.8241264,1.92304686 12.3074999,2.4396734 12.3074999,3.07687497 L12.3074999,6.15374994 C12.3074999,6.79095152 12.8241264,7.30757806 13.461328,7.30757806 L48.0761714,7.30757806 C48.713373,7.30757806 49.2299995,6.79095152 49.2299995,6.15374994 Z M49.2299995,21.5381248 L49.2299995,18.4612498 C49.2299995,17.8240483 48.713373,17.3074217 48.0761714,17.3074217 L13.461328,17.3074217 C12.8241264,17.3074217 12.3074999,17.8240483 12.3074999,18.4612498 L12.3074999,21.5381248 C12.3074999,22.1753264 12.8241264,22.6919529 13.461328,22.6919529 L48.0761714,22.6919529 C48.713373,22.6919529 49.2299995,22.1753264 49.2299995,21.5381248 Z M49.2299995,36.9224997 L49.2299995,33.8456247 C49.2299995,33.2084231 48.713373,32.6917966 48.0761714,32.6917966 L13.461328,32.6917966 C12.8241264,32.6917966 12.3074999,33.2084231 12.3074999,33.8456247 L12.3074999,36.9224997 C12.3074999,37.5597012 12.8241264,38.0763278 13.461328,38.0763278 L48.0761714,38.0763278 C48.713373,38.0763278 49.2299995,37.5597012 49.2299995,36.9224997 Z" id="Shape"></path>
                </g>
            </g>
        </g>
    </g>
</svg>