<?xml version="1.0" encoding="UTF-8"?>
<svg width="64px" height="64px" viewBox="0 0 64 64" version="1.1" xmlns="http://www.w3.org/2000/svg" xmlns:xlink="http://www.w3.org/1999/xlink">
    <!-- Generator: Sketch 50.2 (55047) - http://www.bohemiancoding.com/sketch -->
    <title>icon</title>
    <desc>Created with Sketch.</desc>
    <defs></defs>
    <g id="Page-1" stroke="none" stroke-width="1" fill="none" fill-rule="evenodd">
        <g id="Artboard" transform="translate(-125.000000, -87.000000)">
            <g id="icon" transform="translate(125.000000, 87.000000)">
                <rect id="Rectangle" fill="#F7A220" x="0" y="0" width="64" height="64" rx="8"></rect>
                <g id="quote-left" transform="translate(9.000000, 14.000000)" fill="#FFFFFF" fill-rule="nonzero">
                    <path d="M40.5012503,15.4290477 L36.0011113,15.4290477 L36.0011113,14.7861707 C36.0011113,13.0102231 37.4395486,11.5717858 39.2154963,11.5717858 L39.8583733,11.5717858 C41.9879033,11.5717858 43.7156352,9.84405388 43.7156352,7.71452386 L43.7156352,3.85726193 C43.7156352,1.72773191 41.9879033,0 39.8583733,0 L39.2154963,0 C31.0589945,0 24.4293256,6.62966894 24.4293256,14.7861707 L24.4293256,30.2152185 C24.4293256,33.4054955 27.0249414,36.0011113 30.2152185,36.0011113 L40.5012503,36.0011113 C43.6915273,36.0011113 46.2871432,33.4054955 46.2871432,30.2152185 L46.2871432,21.2149406 C46.2871432,18.0246636 43.6915273,15.4290477 40.5012503,15.4290477 Z M42.4298812,30.2152185 C42.4298812,31.2759655 41.5619973,32.1438494 40.5012503,32.1438494 L30.2152185,32.1438494 C29.1544714,32.1438494 28.2865875,31.2759655 28.2865875,30.2152185 L28.2865875,14.7861707 C28.2865875,8.75919897 33.1885245,3.85726193 39.2154963,3.85726193 L39.8583733,3.85726193 L39.8583733,7.71452386 L39.2154963,7.71452386 C35.3180545,7.71452386 32.1438494,10.888729 32.1438494,14.7861707 L32.1438494,19.2863097 L40.5012503,19.2863097 C41.5619973,19.2863097 42.4298812,20.1541936 42.4298812,21.2149406 L42.4298812,30.2152185 Z M16.0719247,15.4290477 L11.5717858,15.4290477 L11.5717858,14.7861707 C11.5717858,13.0102231 13.0102231,11.5717858 14.7861707,11.5717858 L15.4290477,11.5717858 C17.5585777,11.5717858 19.2863097,9.84405388 19.2863097,7.71452386 L19.2863097,3.85726193 C19.2863097,1.72773191 17.5585777,0 15.4290477,0 L14.7861707,0 C6.62966894,0 0,6.62966894 0,14.7861707 L0,30.2152185 C0,33.4054955 2.59561584,36.0011113 5.7858929,36.0011113 L16.0719247,36.0011113 C19.2622018,36.0011113 21.8578176,33.4054955 21.8578176,30.2152185 L21.8578176,21.2149406 C21.8578176,18.0246636 19.2622018,15.4290477 16.0719247,15.4290477 Z M18.0005557,30.2152185 C18.0005557,31.2759655 17.1326717,32.1438494 16.0719247,32.1438494 L5.7858929,32.1438494 C4.72514586,32.1438494 3.85726193,31.2759655 3.85726193,30.2152185 L3.85726193,14.7861707 C3.85726193,8.75919897 8.75919897,3.85726193 14.7861707,3.85726193 L15.4290477,3.85726193 L15.4290477,7.71452386 L14.7861707,7.71452386 C10.888729,7.71452386 7.71452386,10.888729 7.71452386,14.7861707 L7.71452386,19.2863097 L16.0719247,19.2863097 C17.1326717,19.2863097 18.0005557,20.1541936 18.0005557,21.2149406 L18.0005557,30.2152185 Z" id="Shape"></path>
                </g>
            </g>
        </g>
    </g>
</svg>