<?xml version="1.0" encoding="UTF-8"?>
<svg width="64px" height="64px" viewBox="0 0 64 64" version="1.1" xmlns="http://www.w3.org/2000/svg" xmlns:xlink="http://www.w3.org/1999/xlink">
    <!-- Generator: Sketch 50.2 (55047) - http://www.bohemiancoding.com/sketch -->
    <title>icon</title>
    <desc>Created with Sketch.</desc>
    <defs></defs>
    <g id="Page-1" stroke="none" stroke-width="1" fill="none" fill-rule="evenodd">
        <g id="Artboard" transform="translate(-125.000000, -87.000000)">
            <g id="icon" transform="translate(125.000000, 87.000000)">
                <rect id="Rectangle" fill="#E775AB" x="0" y="0" width="64" height="64" rx="8"></rect>
                <g id="child" transform="translate(16.000000, 12.000000)" fill="#FFFFFF" fill-rule="nonzero">
                    <path d="M30.9333594,7.89757812 C29.1807812,6.14515625 26.6225,5.83054687 24.6003906,6.76242187 C23.8411719,2.97320313 20.4825781,0 16.328125,0 C12.1735156,0 8.815,2.9734375 8.05585937,6.76242187 C6.03015625,5.82882812 3.47273437,6.14789062 1.72304687,7.89734375 C-0.470234375,10.0907031 -0.470234375,13.6592187 1.7228125,15.8524219 L6.328125,20.4549219 L6.328125,34.375 C6.328125,37.4766406 8.85148438,40 11.953125,40 L12.578125,40 C14.0174219,40 15.3322656,39.4566406 16.328125,38.5642188 C17.3239844,39.4566406 18.6388281,40 20.078125,40 L20.703125,40 C23.8047656,40 26.328125,37.4766406 26.328125,34.375 L26.328125,20.4549219 L30.9332813,15.8524219 C33.1264063,13.6592187 33.1264063,10.0907031 30.9333594,7.89757812 Z M16.328125,3.75 C18.9169531,3.75 21.015625,5.84867187 21.015625,8.4375 C21.015625,11.0263281 18.9169531,13.125 16.328125,13.125 C13.7392969,13.125 11.640625,11.0263281 11.640625,8.4375 C11.640625,5.84867187 13.7392969,3.75 16.328125,3.75 Z M28.2789844,13.2008594 L22.578125,18.9016406 L22.578125,34.375 C22.578125,35.4105469 21.7386719,36.25 20.703125,36.25 L20.078125,36.25 C19.0425781,36.25 18.203125,35.4105469 18.203125,34.375 L18.203125,26.875 L14.453125,26.875 L14.453125,34.375 C14.453125,35.4105469 13.6136719,36.25 12.578125,36.25 L11.953125,36.25 C10.9175781,36.25 10.078125,35.4105469 10.078125,34.375 L10.078125,18.9016406 L4.37726562,13.2007812 C3.64507812,12.4685156 3.64507812,11.2813281 4.37726562,10.5490625 C5.10953125,9.816875 6.29664062,9.816875 7.02890625,10.5490625 L12.7297656,16.25 L19.9264062,16.25 L25.6272656,10.5491406 C26.3595312,9.81695312 27.5466406,9.81695312 28.2789063,10.5491406 C29.0111719,11.2814062 29.0111719,12.4685937 28.2789844,13.2008594 Z" id="Shape"></path>
                </g>
            </g>
        </g>
    </g>
</svg>