<?xml version="1.0" encoding="UTF-8"?>
<svg width="64px" height="64px" viewBox="0 0 64 64" version="1.1" xmlns="http://www.w3.org/2000/svg" xmlns:xlink="http://www.w3.org/1999/xlink">
    <!-- Generator: Sketch 50.2 (55047) - http://www.bohemiancoding.com/sketch -->
    <title>icon</title>
    <desc>Created with Sketch.</desc>
    <defs></defs>
    <g id="Page-1" stroke="none" stroke-width="1" fill="none" fill-rule="evenodd">
        <g id="Artboard" transform="translate(-125.000000, -87.000000)">
            <g id="icon" transform="translate(125.000000, 87.000000)">
                <rect id="Rectangle" fill="#3EC0F0" x="0" y="0" width="64" height="64" rx="8"></rect>
                <g id="camera-retro" transform="translate(9.000000, 12.000000)" fill="#FFFFFF" fill-rule="nonzero">
                    <path d="M2.85714286,2.32142857 L2.85714286,0.535714286 C2.85714286,0.241071429 3.09821429,0 3.39285714,0 L13.75,0 C14.0446429,0 14.2857143,0.241071429 14.2857143,0.535714286 L14.2857143,2.32142857 C14.2857143,2.61607143 14.0446429,2.85714286 13.75,2.85714286 L3.39285714,2.85714286 C3.09821429,2.85714286 2.85714286,2.61607143 2.85714286,2.32142857 Z M33.5714286,22.8571429 C33.5714286,16.9464286 28.7678571,12.1428571 22.8571429,12.1428571 C16.9464286,12.1428571 12.1428571,16.9464286 12.1428571,22.8571429 C12.1428571,28.7678571 16.9464286,33.5714286 22.8571429,33.5714286 C28.7678571,33.5714286 33.5714286,28.7678571 33.5714286,22.8571429 Z M30.7142857,22.8571429 C30.7142857,27.1875 27.1875,30.7142857 22.8571429,30.7142857 C18.5267857,30.7142857 15,27.1875 15,22.8571429 C15,18.5267857 18.5267857,15 22.8571429,15 C27.1875,15 30.7142857,18.5267857 30.7142857,22.8571429 Z M20,22.8571429 C20,21.2857143 21.2857143,20 22.8571429,20 C23.6428571,20 24.2857143,19.3571429 24.2857143,18.5714286 C24.2857143,17.7857143 23.6428571,17.1428571 22.8571429,17.1428571 C19.7053571,17.1428571 17.1428571,19.7053571 17.1428571,22.8571429 C17.1428571,23.6428571 17.7857143,24.2857143 18.5714286,24.2857143 C19.3571429,24.2857143 20,23.6428571 20,22.8571429 Z M45.7142857,4.28571429 L45.7142857,35.7142857 C45.7142857,38.0803571 43.7946429,40 41.4285714,40 L4.28571429,40 C1.91964286,40 0,38.0803571 0,35.7142857 L0,10 C0,7.63392857 1.91964286,5.71428571 4.28571429,5.71428571 L16.4285714,5.71428571 L19.4285714,1.71428571 C20.2410714,0.633928571 21.5089286,0 22.8571429,0 L41.4285714,0 C43.7946429,0 45.7142857,1.91964286 45.7142857,4.28571429 Z M20,5.71428571 L41.4285714,5.71428571 C41.9285714,5.71428571 42.4107143,5.80357143 42.8571429,5.95535714 L42.8571429,4.28571429 C42.8571429,3.5 42.2142857,2.85714286 41.4285714,2.85714286 L22.8571429,2.85714286 C22.4107143,2.85714286 21.9821429,3.07142857 21.7142857,3.42857143 L20,5.71428571 Z M42.8571429,10 C42.8571429,9.21428571 42.2142857,8.57142857 41.4285714,8.57142857 L4.28571429,8.57142857 C3.5,8.57142857 2.85714286,9.21428571 2.85714286,10 L2.85714286,35.7142857 C2.85714286,36.5 3.5,37.1428571 4.28571429,37.1428571 L41.4285714,37.1428571 C42.2142857,37.1428571 42.8571429,36.5 42.8571429,35.7142857 L42.8571429,10 Z" id="Shape"></path>
                </g>
            </g>
        </g>
    </g>
</svg>