<?xml version="1.0" encoding="UTF-8"?>
<svg width="64px" height="64px" viewBox="0 0 64 64" version="1.1" xmlns="http://www.w3.org/2000/svg" xmlns:xlink="http://www.w3.org/1999/xlink">
    <!-- Generator: Sketch 50.2 (55047) - http://www.bohemiancoding.com/sketch -->
    <title>icon</title>
    <desc>Created with Sketch.</desc>
    <defs></defs>
    <g id="Page-1" stroke="none" stroke-width="1" fill="none" fill-rule="evenodd">
        <g id="Artboard" transform="translate(-125.000000, -87.000000)">
            <g id="icon" transform="translate(125.000000, 87.000000)">
                <rect id="Rectangle" fill="#F8AC23" x="0" y="0" width="64" height="64" rx="8"></rect>
                <g id="award" transform="translate(14.000000, 12.000000)" fill="#FFFFFF" fill-rule="nonzero">
                    <path d="M34.8803119,33.8565302 L30.0187135,23.1274854 C30.3649123,22.2362573 30.6674464,22.0226121 31.7606238,20.9294347 C32.6410102,20.0487786 32.9848793,18.7654362 32.662768,17.5625731 C32.0163743,15.1493177 32.0155945,15.4846004 32.662768,13.0697856 C32.9847795,11.8669224 32.6409237,10.58363 31.7606238,9.70292398 C29.9922027,7.93294347 30.1606238,8.22612086 29.5134503,5.81052632 C29.1914795,4.60746676 28.2517925,3.66777973 27.0487329,3.34580897 C24.6346979,2.6994152 24.9263158,2.86783626 23.1578947,1.0994152 C22.2772469,0.218457298 20.9934971,-0.12573864 19.7902534,0.196491228 C17.3832359,0.841325536 17.7091618,0.84288499 15.2974659,0.196491228 C14.0942222,-0.125638745 12.8105224,0.218543802 11.9298246,1.0994152 C10.162963,2.8662768 10.4538012,2.69863548 8.03898635,3.34580897 C6.8359268,3.66777973 5.89623977,4.60746676 5.57426901,5.81052632 C4.92787524,8.2245614 5.0962963,7.93294347 3.32787524,9.70136452 C2.44756335,10.5816764 2.10292398,11.8658869 2.42573099,13.0682261 C3.07212476,15.4814815 3.07290448,15.1461988 2.42573099,17.5610136 C2.10361968,18.7638768 2.44748885,20.0472191 3.32787524,20.9278752 C4.50526316,22.1060429 4.73294347,22.2580897 5.06978558,23.1259259 L0.207407407,33.8565302 C-0.257309942,34.8818713 0.585575049,35.9961014 1.80194932,35.9961014 C1.8245614,35.9961014 1.84795322,35.9953216 1.8705653,35.9945419 L7.55165692,35.7988304 L11.4604288,39.51423 C11.8089669,39.8440546 12.2619883,40 12.7095517,40 C13.3746589,40 14.0288499,39.6576998 14.3118908,39.0331384 L17.5438596,31.9009747 L20.7758285,39.0331384 C21.0588694,39.6576998 21.7130604,40 22.3781676,40 C22.8265107,40 23.2795322,39.8440546 23.6265107,39.51423 L27.5352827,35.7988304 L33.2163743,35.9945419 C33.2397661,35.9953216 33.2623782,35.9961014 33.2849903,35.9961014 C34.5013645,35.9953216 35.3450292,34.8818713 34.8803119,33.8565302 Z M12.0647173,34.9239766 L8.99259259,32.0046784 L5.09473684,32.1387914 L7.41208577,27.0245614 C7.61403509,27.1243665 7.81598441,27.2249513 8.03898635,27.2849903 C9.99922027,27.8105263 10.1278752,27.7294347 11.3964912,28.9980507 C12.0693957,29.6709552 12.9614035,30.0194932 13.862768,30.0194932 C14.0148148,30.0194932 14.1645224,29.9766082 14.3157895,29.957115 L12.0647173,34.9239766 Z M13.9009747,26.2097466 C12.1840156,24.4881092 11.2701754,24.2760234 9.15087719,23.7076023 C8.26666667,20.4093567 7.82222222,20.1302144 6.07875244,18.3867446 C6.97621832,15.0393762 6.69395712,14.5364522 6.07875244,12.2432749 C8.49278752,9.82923977 8.51306043,9.30448343 9.15165692,6.92241715 C11.419883,6.31578947 12.0421053,6.28148148 14.4732943,3.8502924 C17.7964912,4.74074074 18.3087719,4.46939571 20.6167641,3.8502924 C22.2768031,5.51033138 22.6167641,6.03196881 25.9376218,6.92241715 C26.8218324,10.2206628 27.2662768,10.4998051 29.0097466,12.2440546 C28.1263158,15.5423002 28.3711501,16.0070175 29.0097466,18.3890838 C27.3497076,20.0491228 26.8280702,20.3898635 25.9376218,23.7107212 C23.8892788,24.2596491 22.9528265,24.4467836 21.1867446,26.2128655 C18.7586745,24.7953216 15.9610136,25.0081871 13.9009747,26.2097466 Z M27.6639376,32.0584795 L26.0951267,32.0046784 L23.0230019,34.9239766 L20.7719298,29.957115 C20.9231969,29.9773879 21.0729045,30.0194932 21.2249513,30.0194932 C22.1255361,30.0194932 23.0183236,29.6709552 23.6912281,28.9980507 C24.9707602,27.7185185 25.079922,27.8128655 27.0487329,27.2849903 C27.2709552,27.225731 27.4729045,27.1243665 27.6756335,27.0245614 L29.9929825,32.1380117 L27.6639376,32.0584795 Z M25.0292398,15.0487329 C25.0292398,10.9146199 21.6779727,7.56335283 17.5438596,7.56335283 C13.4097466,7.56335283 10.0584795,10.9146199 10.0584795,15.0487329 C10.0584795,19.182846 13.4097466,22.5341131 17.5438596,22.5341131 C21.6779727,22.5341131 25.0292398,19.182846 25.0292398,15.0487329 Z M17.5438596,18.791423 C15.479922,18.791423 13.8011696,17.1126706 13.8011696,15.0487329 C13.8011696,12.9847953 15.479922,11.3060429 17.5438596,11.3060429 C19.6077973,11.3060429 21.2865497,12.9847953 21.2865497,15.0487329 C21.2865497,17.1126706 19.6077973,18.791423 17.5438596,18.791423 Z" id="Shape"></path>
                </g>
            </g>
        </g>
    </g>
</svg>