<?xml version="1.0" encoding="UTF-8"?>
<svg width="64px" height="64px" viewBox="0 0 64 64" version="1.1" xmlns="http://www.w3.org/2000/svg" xmlns:xlink="http://www.w3.org/1999/xlink">
    <!-- Generator: Sketch 50.2 (55047) - http://www.bohemiancoding.com/sketch -->
    <title>icon</title>
    <desc>Created with Sketch.</desc>
    <defs></defs>
    <g id="Page-1" stroke="none" stroke-width="1" fill="none" fill-rule="evenodd">
        <g id="Artboard" transform="translate(-125.000000, -87.000000)">
            <g id="icon" transform="translate(125.000000, 87.000000)">
                <rect id="Rectangle" fill="#3EC0F0" x="0" y="0" width="64" height="64" rx="8"></rect>
                <g id="images" transform="translate(6.000000, 12.000000)" fill="#FFFFFF" fill-rule="nonzero">
                    <path d="M42.8571429,34.2857143 L42.8571429,35.7142857 C42.8571429,38.08125 40.9383929,40 38.5714286,40 L4.28571429,40 C1.91875,40 0,38.08125 0,35.7142857 L0,12.8571429 C0,10.4901786 1.91875,8.57142857 4.28571429,8.57142857 L5.71428571,8.57142857 L5.71428571,12.8571429 L4.82142857,12.8571429 C4.52556174,12.8571429 4.28571429,13.0969903 4.28571429,13.3928571 L4.28571429,35.1785714 C4.28571429,35.4744383 4.52556174,35.7142857 4.82142857,35.7142857 L38.0357143,35.7142857 C38.3315811,35.7142857 38.5714286,35.4744383 38.5714286,35.1785714 L38.5714286,34.2857143 L42.8571429,34.2857143 Z M46.6071429,4.28571429 L13.3928571,4.28571429 C13.0969903,4.28571429 12.8571429,4.52556174 12.8571429,4.82142857 L12.8571429,26.6071429 C12.8571429,26.9030097 13.0969903,27.1428571 13.3928571,27.1428571 L46.6071429,27.1428571 C46.9030097,27.1428571 47.1428571,26.9030097 47.1428571,26.6071429 L47.1428571,4.82142857 C47.1428571,4.52556174 46.9030097,4.28571429 46.6071429,4.28571429 Z M47.1428571,0 C49.5098214,0 51.4285714,1.91875 51.4285714,4.28571429 L51.4285714,27.1428571 C51.4285714,29.5098214 49.5098214,31.4285714 47.1428571,31.4285714 L12.8571429,31.4285714 C10.4901786,31.4285714 8.57142857,29.5098214 8.57142857,27.1428571 L8.57142857,4.28571429 C8.57142857,1.91875 10.4901786,0 12.8571429,0 L47.1428571,0 Z M23.5714286,10 C23.5714286,11.9724107 21.9724107,13.5714286 20,13.5714286 C18.0275893,13.5714286 16.4285714,11.9724107 16.4285714,10 C16.4285714,8.02758929 18.0275893,6.42857143 20,6.42857143 C21.9724107,6.42857143 23.5714286,8.02758929 23.5714286,10 Z M17.1428571,18.5714286 L20.6709821,15.0433036 C21.089375,14.6249107 21.7677679,14.6249107 22.18625,15.0433036 L25.7142857,18.5714286 L34.9566964,9.32901786 C35.3750893,8.910625 36.0534821,8.910625 36.4719643,9.32901786 L42.8571429,15.7142857 L42.8571429,22.8571429 L17.1428571,22.8571429 L17.1428571,18.5714286 Z" id="Shape"></path>
                </g>
            </g>
        </g>
    </g>
</svg>