<?xml version="1.0" encoding="UTF-8"?>
<svg width="64px" height="64px" viewBox="0 0 64 64" version="1.1" xmlns="http://www.w3.org/2000/svg" xmlns:xlink="http://www.w3.org/1999/xlink">
    <!-- Generator: Sketch 50.2 (55047) - http://www.bohemiancoding.com/sketch -->
    <title>icon</title>
    <desc>Created with Sketch.</desc>
    <defs></defs>
    <g id="Page-1" stroke="none" stroke-width="1" fill="none" fill-rule="evenodd">
        <g id="Artboard" transform="translate(-125.000000, -87.000000)">
            <g id="icon" transform="translate(125.000000, 87.000000)">
                <rect id="Rectangle" fill="#4AA63D" x="0" y="0" width="64" height="64" rx="8"></rect>
                <g id="question" transform="translate(18.000000, 12.000000)" fill="#FFFFFF" fill-rule="nonzero">
                    <path d="M14.3476562,0 C8.56445312,0 4.19257813,2.35835938 0.87578125,7.22734375 C-0.621875,9.4265625 -0.13515625,12.4070312 1.9828125,14.0132813 L4.85234375,16.1890625 C5.696875,16.8296875 6.7421875,17.1882812 7.80078125,17.2015625 C6.87578125,18.6859375 6.40859375,20.3742188 6.40859375,22.2445313 L6.40859375,23.1375 C6.40859375,24.4171875 6.89296875,25.5859375 7.68828125,26.4695312 C6.40546875,27.90625 5.625,29.8007812 5.625,31.875 C5.625,36.3554688 9.26953125,40 13.75,40 C18.2304688,40 21.875,36.3554688 21.875,31.875 C21.875,29.8007812 21.0945313,27.90625 19.8117187,26.4695312 C20.4882812,25.7179688 20.9390625,24.7609375 21.059375,23.7054688 C23.2692969,22.3888281 28.559375,19.8855469 28.559375,12.9078125 C28.559375,5.55867187 21.4483594,0 14.3476562,0 Z M13.75,36.25 C11.3375,36.25 9.375,34.2875 9.375,31.875 C9.375,29.4630469 11.3373437,27.5 13.75,27.5 C16.1630469,27.5 18.125,29.4634375 18.125,31.875 C18.125,34.2875 16.1625,36.25 13.75,36.25 Z M17.3414062,22.4835937 L17.3414062,23.1375 C17.3414062,23.8240625 16.7842969,24.375 16.1039062,24.375 L11.3960937,24.375 C10.7157812,24.375 10.1585937,23.8241406 10.1585937,23.1375 L10.1585937,22.2445312 C10.1585937,18.5585938 12.953125,17.0851562 15.065625,15.9007812 C16.8765625,14.8851562 17.9867187,14.1953125 17.9867187,12.8507812 C17.9867187,11.071875 15.7179687,9.89140625 13.8835937,9.89140625 C11.4921875,9.89140625 10.3882812,11.0234375 8.83671875,12.9820313 C8.41757812,13.5110156 7.65257812,13.6078125 7.11796875,13.2007813 L4.2484375,11.025 C3.721875,10.6257812 3.60390625,9.884375 3.97578125,9.33828125 C6.4125,5.76015625 9.515625,3.75 14.3476562,3.75 C19.4078125,3.75 24.809375,7.7 24.809375,12.9078125 C24.809375,19.8226563 17.3414062,19.9289063 17.3414062,22.4835937 Z" id="Shape"></path>
                </g>
            </g>
        </g>
    </g>
</svg>