<?xml version="1.0" encoding="UTF-8"?>
<svg width="64px" height="64px" viewBox="0 0 64 64" version="1.1" xmlns="http://www.w3.org/2000/svg" xmlns:xlink="http://www.w3.org/1999/xlink">
    <!-- Generator: Sketch 50.2 (55047) - http://www.bohemiancoding.com/sketch -->
    <title>icon</title>
    <desc>Created with Sketch.</desc>
    <defs></defs>
    <g id="Page-1" stroke="none" stroke-width="1" fill="none" fill-rule="evenodd">
        <g id="Artboard" transform="translate(-125.000000, -87.000000)">
            <g id="icon" transform="translate(125.000000, 87.000000)">
                <rect id="Rectangle" fill="#3EC0F0" x="0" y="0" width="64" height="64" rx="8"></rect>
                <g id="award" transform="translate(14.000000, 12.000000)"></g>
                <g id="bullseye-pointer" transform="translate(12.000000, 12.000000)" fill="#FFFFFF" fill-rule="nonzero">
                    <path d="M19.6096774,18.7637097 L2.33709677,23.6733871 C1.11370968,24.0209677 0.97016129,25.6975806 2.11693548,26.2475806 L7.63870968,28.9 L0.447580645,36.091129 C-0.0419354839,36.5798387 -0.0419354839,37.3733871 0.447580645,37.8620968 L2.21854839,39.6330645 C2.70806452,40.1217742 3.50080645,40.1217742 3.98951613,39.6330645 L11.1806452,32.4419355 L13.8330645,37.9637097 C14.383871,39.1104839 16.0596774,38.9669355 16.4072581,37.7435484 L21.316129,20.4709677 C21.6129032,19.4298387 20.6508065,18.4685484 19.6096774,18.7637097 Z M21.816129,28.2016129 L20.6806452,32.1975806 C27.1709677,31.8790323 32.3387097,26.5693548 32.3387097,20 C32.3387097,13.2241935 26.8548387,7.74193548 20.0806452,7.74193548 C13.5104839,7.74193548 8.2016129,12.9112903 7.88306452,19.4008065 L11.8790323,18.2653226 C12.6814516,14.4709677 16.0516129,11.6129032 20.0806452,11.6129032 C24.7056452,11.6129032 28.4677419,15.375 28.4677419,20 C28.4677419,24.0290323 25.6096774,27.3991935 21.816129,28.2016129 Z M20.0806452,0 C9.03467742,0 0.0806451613,8.95403226 0.0806451613,20 C0.0806451613,20.5887097 0.118548387,21.1685484 0.168548387,21.7443548 C0.447580645,21.5854839 0.733064516,21.4322581 1.05483871,21.341129 L3.97741935,20.5104839 C3.97177419,20.3395161 3.9516129,20.1725806 3.9516129,20 C3.9516129,11.1064516 11.1870968,3.87096774 20.0806452,3.87096774 C28.9741935,3.87096774 36.2096774,11.1064516 36.2096774,20 C36.2096774,28.8935484 28.9741935,36.1290323 20.0806452,36.1290323 C19.9080645,36.1290323 19.741129,36.108871 19.5701613,36.1032258 L18.7395161,39.0258065 C18.6475806,39.35 18.4854839,39.6306452 18.325,39.9112903 C18.9048387,39.9620968 19.4879032,40 20.0806452,40 C31.1266129,40 40.0806452,31.0459677 40.0806452,20 C40.0806452,8.95403226 31.1266129,0 20.0806452,0 Z" id="Shape"></path>
                </g>
            </g>
        </g>
    </g>
</svg>