<?xml version="1.0" encoding="UTF-8"?>
<svg width="198px" height="230px" viewBox="0 0 198 230" version="1.1" xmlns="http://www.w3.org/2000/svg" xmlns:xlink="http://www.w3.org/1999/xlink">
    <!-- Generator: Sketch 50.2 (55047) - http://www.bohemiancoding.com/sketch -->
    <title>logo</title>
    <desc>Created with Sketch.</desc>
    <defs></defs>
    <g id="Page-1" stroke="none" stroke-width="1" fill="none" fill-rule="evenodd">
        <g id="logo">
            <g id="Group-2">
                <polygon id="Shape" fill="#125DA4" points="68.2 114.8 0 154.8 68.2 194.9"></polygon>
                <polygon id="Shape" fill="#83378C" points="136.4 74.7 68.2 114.8 136.4 154.8"></polygon>
                <polygon id="Shape" fill="#3EC0F0" points="68.2 194.9 136.4 154.8 68.2 114.8"></polygon>
                <path d="M68.2,194.9 L12,227.9 C5.4,231.8 0,228.7 0,221 L0,154.8 L68.2,194.9 Z" id="Shape" fill="#A37CB6"></path>
                <polygon id="Shape" fill="#9E1254" points="68.2 114.8 0 74.7 68.2 34.7"></polygon>
                <polygon id="Shape" fill="#F8AC23" points="68.2 34.7 136.4 74.7 68.2 114.8"></polygon>
                <path d="M192.6,107.7 C199.2,111.6 199.2,117.9 192.6,121.8 L136.4,154.8 L136.4,74.7 L192.6,107.7 Z" id="Shape" fill="#E774AB"></path>
                <path d="M68.2,34.7 L12,1.7 C5.4,-2.2 0,0.9 0,8.6 L0,74.8 L68.2,34.7 Z" id="Shape" fill="#E72583"></path>
                <polygon id="Shape" fill="#54B045" points="0 154.8 68.2 114.8 0 74.7"></polygon>
            </g>
            <g id="Group" transform="translate(7.000000, 67.000000)" fill="#FFFFFF">
                <path d="M59.2,12.8 C62.9,12.8 65.7,14.6 65.7,18.5 C65.7,21.1 64.3,23.3 61.6,23.8 L66.9,30.7 L73.8,12.8 L79,12.8 L86,31.4 L80.8,31.4 L79.6,28.2 L72.9,28.2 L71.6,31.4 L67.3,31.4 L66.4,31.4 L61.2,31.4 L56.6,24.2 L56.6,31.4 L51.8,31.4 L51.8,12.8 L59.2,12.8 Z M6.4,23.7 L6.4,27.7 L7,27.7 C8.4,27.7 10.9,27.8 10.9,25.7 C10.9,23.5 8.5,23.7 6.9,23.7 L6.4,23.7 Z M9,31.4 L1.5,31.4 L1.5,12.8 L8.4,12.8 C11.7,12.8 13.9,14.1 13.9,17.6 C13.9,19.3 13.4,20.6 11.9,21.4 C14.6,21.7 15.7,23.5 15.7,26.1 C15.7,30.1 12.4,31.4 9,31.4 Z M6.4,16.5 L6.4,20.1 L6.9,20.1 C8.2,20.1 9.5,19.9 9.5,18.3 C9.5,16.6 8,16.5 6.7,16.5 L6.4,16.5 Z M22.6,12.8 L22.6,31.4 L17.8,31.4 L17.8,12.8 L22.6,12.8 Z M34.2,21 L43.8,21 C43.8,23.7 43.6,26 41.9,28.4 C40.1,30.9 37.3,32.1 34.2,32.1 C28.4,32.1 24.3,28.1 24.3,22.3 C24.3,16.3 28.4,12.3 34.4,12.3 C38.2,12.3 41.2,14 42.8,17.5 L38.2,19.4 C37.5,17.6 36.1,16.4 34.2,16.4 C31,16.4 29.4,19.4 29.4,22.3 C29.4,25.2 31.1,28.1 34.3,28.1 C36.4,28.1 38,27 38.2,24.9 L34.3,24.9 L34.3,21 L34.2,21 Z M56.8,16.5 L56.8,21.1 L57.3,21.1 C58.9,21.1 60.7,20.8 60.7,18.8 C60.7,16.8 58.9,16.5 57.3,16.5 L56.8,16.5 Z M78.3,24.5 L76.3,18.6 L74.3,24.5 L78.3,24.5 Z M91.8,12.8 L91.8,31.4 L87,31.4 L87,12.8 L91.8,12.8 Z M99.3,12.8 L99.3,27.3 L105.1,27.3 L105.1,31.4 L94.5,31.4 L94.5,12.8 L99.3,12.8 Z" id="Shape"></path>
                <path d="M5,2.4 L5,10.5 L2.3,10.5 L2.3,2.4 L0,2.4 L0,0.1 L7.1,0.1 L7.1,2.4 L5,2.4 Z M10.6,4.1 L14.5,4.1 L14.5,0.1 L17.2,0.1 L17.2,10.5 L14.5,10.5 L14.5,6.3 L10.6,6.3 L10.6,10.5 L7.9,10.5 L7.9,0.1 L10.6,0.1 L10.6,4.1 Z M24.5,2.4 L21.3,2.4 L21.3,4.1 L24.3,4.1 L24.3,6.4 L21.3,6.4 L21.3,8.2 L24.5,8.2 L24.5,10.5 L18.6,10.5 L18.6,0.1 L24.5,0.1 L24.5,2.4 Z" id="Shape"></path>
                <path d="M1.5,52.4 L1.5,33.8 L8.4,33.8 C13.6,33.8 17.9,37.9 17.9,43.1 C17.9,48.3 13.6,52.4 8.4,52.4 L1.5,52.4 Z M6.4,37.9 L6.4,48.3 L7.5,48.3 C10.4,48.3 12.9,46.7 12.9,43.1 C12.9,39.8 10.7,37.9 7.6,37.9 L6.4,37.9 Z M24.4,33.8 L24.4,52.4 L19.6,52.4 L19.6,33.8 L24.4,33.8 Z M30.4,33.8 L34.9,45.1 L39.4,33.8 L44.7,33.8 L36.8,52.4 L33,52.4 L25.2,33.8 L30.4,33.8 Z M56,37.9 L50.2,37.9 L50.2,41 L55.7,41 L55.7,45.1 L50.2,45.1 L50.2,48.3 L56,48.3 L56,52.4 L45.4,52.4 L45.4,33.8 L56,33.8 L56,37.9 Z M68.1,44.8 L73.9,52.4 L67.9,52.4 L63.3,45.2 L63.3,52.4 L58.5,52.4 L58.5,33.8 L65.7,33.8 C69.4,33.8 72.2,35.6 72.2,39.5 C72.2,42.1 70.7,44.3 68.1,44.8 Z M63.3,37.5 L63.3,42.1 L63.8,42.1 C65.4,42.1 67.2,41.8 67.2,39.8 C67.2,37.8 65.4,37.5 63.8,37.5 L63.3,37.5 Z M86.9,34.8 L85,38.6 C84.1,37.9 83,37.4 81.8,37.4 C80.9,37.4 79.7,37.9 79.7,39 C79.7,40.1 81,40.5 81.8,40.8 L83,41.2 C85.6,42 87.6,43.3 87.6,46.3 C87.6,48.2 87.2,50.1 85.7,51.3 C84.2,52.5 82.3,53.1 80.4,53.1 C78.1,53.1 75.8,52.3 73.9,51 L76,47.1 C77.2,48.2 78.6,49 80.3,49 C81.4,49 82.6,48.4 82.6,47.1 C82.6,45.7 80.7,45.3 79.7,45 C76.7,44.1 74.7,43.3 74.7,39.7 C74.7,35.9 77.4,33.5 81.1,33.5 C83,33.3 85.3,33.9 86.9,34.8 Z M94.3,33.8 L94.3,52.4 L89.5,52.4 L89.5,33.8 L94.3,33.8 Z M107.6,33.8 L108.4,33.8 L113.4,33.8 L116.9,38.9 L120.4,33.8 L126.2,33.8 L119.3,43.5 L119.3,52.4 L114.5,52.4 L114.5,43.5 L108.4,34.9 L108.4,37.9 L104.4,37.9 L104.4,52.4 L99.6,52.4 L99.6,37.9 L95.6,37.9 L95.6,33.8 L107.6,33.8 Z" id="Shape"></path>
                <path d="M14.8,55.2 L14.8,61 C13.8,59.7 12.2,59 10.6,59 C7.6,59 5.6,61.3 5.6,64.2 C5.6,67.1 7.6,69.3 10.6,69.3 C12.2,69.3 13.8,68.5 14.8,67.3 L14.8,73.1 C13.2,73.6 12,74 10.5,74 C7.9,74 5.4,73 3.5,71.3 C1.5,69.4 0.5,67 0.5,64.3 C0.5,61.8 1.5,59.3 3.2,57.5 C5,55.6 7.7,54.5 10.3,54.5 C12,54.3 13.4,54.6 14.8,55.2 Z M22.2,61.9 L29.2,61.9 L29.2,54.7 L34,54.7 L34,73.3 L29.2,73.3 L29.2,65.7 L22.2,65.7 L22.2,73.3 L17.4,73.3 L17.4,54.7 L22.2,54.7 L22.2,61.9 Z M48.1,70.1 L41.4,70.1 L40.1,73.3 L35,73.3 L42.2,54.7 L47.5,54.7 L54.5,73.3 L49.3,73.3 L48.1,70.1 Z M46.8,66.4 L44.8,60.5 L42.8,66.4 L46.8,66.4 Z M60.3,54.8 L60.3,69.3 L66.1,69.3 L66.1,73.4 L55.4,73.4 L55.4,54.8 L60.3,54.8 Z M72,54.8 L72,69.3 L77.8,69.3 L77.8,73.4 L67.2,73.4 L67.2,54.8 L72,54.8 Z M89.5,58.9 L83.8,58.9 L83.8,62 L89.3,62 L89.3,66.1 L83.8,66.1 L83.8,69.3 L89.5,69.3 L89.5,73.4 L78.9,73.4 L78.9,54.8 L89.5,54.8 L89.5,58.9 Z M92,73.4 L92,54.8 L96.8,54.8 L105.7,66.2 L105.8,66.2 L105.8,54.8 L110.6,54.8 L110.6,73.4 L105.8,73.4 L96.9,62 L96.8,62 L96.8,73.4 L92,73.4 Z M122.2,63 L131.8,63 C131.8,65.7 131.6,68 129.9,70.4 C128.1,72.9 125.3,74.1 122.2,74.1 C116.4,74.1 112.3,70.1 112.3,64.3 C112.3,58.3 116.4,54.3 122.4,54.3 C126.2,54.3 129.2,56 130.8,59.5 L126.2,61.4 C125.5,59.6 124.1,58.4 122.2,58.4 C119,58.4 117.4,61.4 117.4,64.3 C117.4,67.2 119.1,70.1 122.3,70.1 C124.4,70.1 126,69 126.2,66.9 L122.3,66.9 L122.3,63 L122.2,63 Z M144.1,58.9 L138.3,58.9 L138.3,62 L143.8,62 L143.8,66.1 L138.3,66.1 L138.3,69.3 L144.1,69.3 L144.1,73.4 L133.5,73.4 L133.5,54.8 L144.1,54.8 L144.1,58.9 Z" id="Shape"></path>
            </g>
        </g>
    </g>
</svg>