<?xml version="1.0" encoding="UTF-8"?>
<svg width="185px" height="148px" viewBox="0 0 185 148" version="1.1" xmlns="http://www.w3.org/2000/svg" xmlns:xlink="http://www.w3.org/1999/xlink">
    <!-- Generator: Sketch 50.2 (55047) - http://www.bohemiancoding.com/sketch -->
    <title>main-logo</title>
    <desc>Created with Sketch.</desc>
    <defs></defs>
    <g id="Page-1" stroke="none" stroke-width="1" fill="none" fill-rule="evenodd">
        <g id="main-logo">
            <path d="M132,94.77 L132,41.95 C132,37.44 134.54,34.62 139.24,34.62 L155.8,34.62 C170.27,34.62 179.2,41.1 179.2,55.86 C179.2,66.2 171.4,72.12 161.81,73.62 L177.81,90.73 C178.947647,91.8155366 179.621316,93.2990405 179.69,94.87 C179.732103,97.8598464 177.904175,100.558345 175.112017,101.6283 C172.319858,102.698255 169.156703,101.91234 167.19,99.66 L146.3,74.37 L146.11,74.37 L146.11,94.77 C146.11,99.47 143.11,102.1 139.11,102.1 C135.11,102.1 132.11,99.47 132.11,94.77 L132,94.77 Z M146.1,47.59 L146.1,64.22 L155.78,64.22 C160.95,64.22 164.52,61.12 164.52,55.85 C164.52,50.58 160.95,47.58 155.78,47.58 L146.1,47.59 Z" id="Shape" fill="#9CC330"></path>
            <path d="M60.21,94.77 L48.27,43.45 C47.9989481,42.4054742 47.8711116,41.3289562 47.89,40.25 C47.9498849,38.5424862 48.686889,36.929014 49.9383117,35.7657725 C51.1897345,34.602531 52.8526665,33.985178 54.56,34.05 C59.07,34.05 61.23,36.68 62.08,40.82 L70.08,80.77 L70.27,80.77 L82.48,39.6 C83.4108339,36.3231498 86.4035063,34.0621864 89.81,34.0621864 C93.2164937,34.0621864 96.2091661,36.3231498 97.14,39.6 L109.36,80.77 L109.55,80.77 L117.55,40.82 C118.4,36.69 120.55,34.05 125.07,34.05 C126.777334,33.985178 128.440266,34.602531 129.691688,35.7657725 C130.943111,36.929014 131.680115,38.5424862 131.74,40.25 C131.759385,41.3289812 131.631541,42.4055664 131.36,43.45 L119.42,94.77 C118.528236,99.1579771 114.594883,102.258135 110.12,102.1 C105.834519,102.151022 102.036537,99.3495 100.82,95.24 L89.91,59 L89.72,59 L78.82,95.24 C77.5995335,99.351055 73.7980758,102.152129 69.51,102.1 C65.0351168,102.258135 61.1017644,99.1579771 60.21,94.77 Z" id="Shape" fill="#0056A3"></path>
            <path d="M93.86,128.93 C87.86,127.53 80.86,125.66 73.49,123.27 C55.14,117.27 30.9,106.81 19.64,90.54 C18.6321445,89.0896367 17.7234094,87.5728508 16.92,86 C13.8711111,79.2699727 12.9298728,71.774927 14.22,64.5 C22.95,12.05 114.74,4.5 115.66,4.42 L115.51,2.42 C99.1462205,4.01994204 83.0185172,7.4823489 67.44,12.74 C35.06,24 16,41.77 12.24,64.17 C10.3696523,74.8730034 13.0359998,85.871687 19.6,94.53 C26.29,103.74 41.14,116.99 73.89,127.84 C85.8438286,131.784397 98.0786721,134.819708 110.49,136.92 L110.49,136.8 L113.59,132.74 L93.86,128.93 Z" id="Shape" fill="#9CC330"></path>
            <path d="M75.82,143.37 L75.41,143.26 L70.77,141.83 C58.8855487,137.924219 47.5397706,132.538586 37,125.8 C19.94,114.58 0.56,95.07 5.38,65.83 C8,49.85 18,37.87 30.38,29 C40.55,22 52.14,16.95 62.68,13.33 C79.7867613,7.60152231 97.4797345,3.80130646 115.43,2 L115.28,1.42108547e-14 C97.1804373,1.78606983 79.3366959,5.5862501 62.08,11.33 C26.29,23.65 5.31,42.92 1.4,67.12 C-2.51,91.32 8.66,113 33.71,129.75 C45.8398222,137.656107 59.0547166,143.756585 72.94,147.86 L76.33,143.57 L75.81,143.41 L75.82,143.37 Z" id="Shape" fill="#0056A3"></path>
            <path d="M65.33,117.11 L64.7,117.11 L62.21,107.7 L62.89,107.7 L64.27,113 L65.05,116.23 C65.2784851,115.1377 65.5689548,114.059289 65.92,113 L67.46,107.69 L68.1,107.69 L69.5,112.96 C69.81,114.11 70.11,115.26 70.27,116.23 C70.48,115.23 70.79,114.23 71.12,112.99 L72.67,107.69 L73.35,107.69 L70.53,117.1 L69.89,117.1 L68.48,111.68 C68.1712611,110.636084 67.9274612,109.574052 67.75,108.5 C67.5331711,109.572404 67.2526747,110.630944 66.91,111.67 L65.3,117.1 L65.33,117.11 Z M80.98,117.26 C78.66,117.26 76.86,115.43 76.86,112.5 C76.86,109.41 78.73,107.5 81.09,107.5 C83.45,107.5 85.2,109.36 85.2,112.26 C85.2,115.59 83.2,117.26 81,117.26 L80.98,117.26 Z M80.98,116.7 C83.22,116.7 84.46,114.7 84.46,112.34 C84.46,110.34 83.37,108.09 81.01,108.09 C78.65,108.09 77.52,110.27 77.52,112.46 C77.52,114.65 78.75,116.69 80.97,116.69 L80.98,116.7 Z M97.84,117.1 L97.56,112.64 C97.48,111.23 97.36,109.5 97.36,108.46 L96.07,112 L94.07,117.11 L93.61,117.11 L91.75,112.11 C91.22,110.64 90.81,109.51 90.53,108.48 L90.32,112.78 L90,117.11 L89.34,117.11 L90.02,107.7 L90.79,107.7 L92.79,113.13 C93.24,114.32 93.56,115.27 93.79,116.13 C94.03,115.26 94.36,114.36 94.79,113.13 L96.9,107.7 L97.7,107.7 L98.33,117.11 L97.84,117.1 Z M107.7,111.86 L107.7,112.42 L104,112.42 L104,116.54 L108.21,116.54 L108.21,117.1 L103.34,117.1 L103.34,107.7 L107.99,107.7 L107.99,108.26 L103.99,108.26 L103.99,111.88 L107.7,111.86 Z M113.23,117.1 L112.59,117.1 L112.59,107.7 L113.22,107.7 L116.88,113.26 C117.525759,114.226037 118.116692,115.227617 118.65,116.26 C118.55,114.99 118.54,113.91 118.54,112.44 L118.54,107.7 L119.18,107.7 L119.18,117.11 L118.56,117.11 L115,111.64 C114.336047,110.673927 113.725144,109.672447 113.17,108.64 C113.24,109.8 113.25,110.82 113.25,112.38 L113.25,117.14 L113.23,117.1 Z M130.13,107.69 L130.8,107.69 L130.8,117.1 L130.13,117.1 L130.13,107.69 Z M136.53,117.1 L135.89,117.1 L135.89,107.7 L136.52,107.7 L140.18,113.26 C140.825193,114.226392 141.416107,115.227941 141.95,116.26 C141.85,114.99 141.84,113.91 141.84,112.44 L141.84,107.7 L142.48,107.7 L142.48,117.11 L141.86,117.11 L138.27,111.63 C137.606734,110.663481 136.995855,109.662039 136.44,108.63 C136.51,109.79 136.52,110.81 136.52,112.37 L136.52,117.13 L136.53,117.1 Z M152.8,117.1 L152.8,107.81 C153.458818,107.680075 154.1285,107.613106 154.8,107.61 C155.716961,107.519326 156.631968,107.800313 157.34,108.39 C157.773921,108.840422 158.011303,109.444669 158,110.07 C158.022238,111.214562 157.264224,112.227995 156.16,112.53 C156.977109,112.875829 157.535384,113.645864 157.61,114.53 C157.752764,115.399058 157.987413,116.250499 158.31,117.07 L157.63,117.07 C157.358006,116.327367 157.157105,115.560596 157.03,114.78 C156.74,113.42 156.15,112.78 154.91,112.78 L153.45,112.78 L153.45,117.1 L152.8,117.1 Z M153.47,108.29 L153.47,112.29 L155,112.29 C156.45,112.29 157.4,111.48 157.4,110.24 C157.4,108.8 156.34,108.24 154.86,108.24 C154.406643,108.234861 153.954046,108.278445 153.51,108.37 L153.47,108.29 Z M167.47,113.81 L163.8,113.81 L162.64,117.11 L162,117.11 L165.41,107.7 L166,107.7 L169.39,117.11 L168.71,117.11 L167.47,113.81 Z M163.95,113.25 L167.26,113.25 L166.11,110.11 C165.89,109.45 165.76,108.98 165.62,108.45 C165.48,108.99 165.33,109.45 165.13,110.08 L164,113.26 L163.95,113.25 Z M173.58,107.69 L174.25,107.69 L174.25,117.1 L173.58,117.1 L173.58,107.69 Z M179.32,117.1 L179.32,107.7 L180,107.7 L180,116.56 L184.19,116.56 L184.19,117.12 L179.32,117.1 Z" id="Shape" fill="#0056A3"></path>
        </g>
    </g>
</svg>